<svg width="250" height="70" viewBox="0 0 250 70" fill="none" xmlns="http://www.w3.org/2000/svg">
<path d="M0 0H250V70H0V0Z" fill="white"/>
<g clip-path="url(#clip0_9_128)">
<path d="M137.438 30.0312V26H142.055V44.881H137.438V30.0312ZM117.11 26H134.923V30.0656H126.55V44.9155H121.968V30.0656H117.11V26ZM209 26V30.0656H200.628V44.9155H196.045V30.0656H191.187V26H209ZM41 26H60.9836V30.0656H45.6169V34.0968H58.7096V38.1624H45.6169V44.881H41V26ZM170.032 26H188.637V30.0656H174.649V33.4422H186.122V37.5078H174.649V40.8843H188.879V44.95H170.032V26ZM166.483 31.3404V44.881H161.866V31.3404C161.866 30.6169 161.315 30.0656 160.591 30.0656H150.255V44.9155H145.638V26H161.143C164.071 26 166.483 28.4118 166.483 31.3404ZM110.012 26H94.2666V44.881H98.8835V38.1624H109.22C109.771 38.1969 110.219 38.6448 110.219 39.1961V44.9155H114.836V39.1272C114.836 38.128 114.285 37.2666 113.458 36.7842C114.457 35.854 115.077 34.5103 115.077 33.0632V31.0648C115.112 28.274 112.838 26 110.012 26ZM110.495 33.0632C110.495 33.6144 110.047 34.0968 109.461 34.0968H98.8835V30.0656H109.461C110.012 30.0656 110.495 30.5135 110.495 31.0993V33.0632Z" fill="black"/>
<path d="M90.6834 33.0287V37.9212H83.0345V33.0287H90.6834ZM73.3528 44.881H80.9672V39.9885H73.3528V44.881ZM90.6834 30.1001C90.6834 27.8261 88.8573 26 86.5833 26H83.0689V30.8925H90.6834V30.1001ZM73.3528 26V30.8925H80.9672V26H73.3528ZM63.6366 33.0287V37.9212H71.251V33.0287H63.6366ZM83.0345 44.881H86.5488C88.8228 44.881 90.6489 43.055 90.6489 40.781V39.9885H83.0345V44.881ZM63.6366 40.781C63.6366 43.055 65.4627 44.881 67.7367 44.881H71.251V39.9885H63.6366V40.781ZM63.6366 30.1001V30.8925H71.251V26H67.7367C65.4627 26 63.6366 27.8261 63.6366 30.1001Z" fill="#DA291C"/>
</g>
<defs>
<clipPath id="clip0_9_128">
<rect width="168" height="18.95" fill="white" transform="translate(41 26)"/>
</clipPath>
</defs>
</svg>
