<svg xmlns="http://www.w3.org/2000/svg" viewBox="0 0 250 250"><defs><style>.cls-1{fill:#3cb17e;}.cls-2{fill:#fff;}</style></defs><g id="_2_color_stroke" data-name="2 color stroke"><path class="cls-1" d="M114,250l-2.67-1.28c-38.36-18.44-56.86-29-72.16-46.34-13-14.78-20.79-36.06-20.79-56.88V29.79l5.68-.44a202.87,202.87,0,0,0,86.8-27.48L114,0l3.14,1.87A202.86,202.86,0,0,0,204,29.35l5.67.44V145.5c0,20.82-7.77,42.1-20.79,56.88-15.3,17.38-33.8,27.9-72.16,46.34Z"/><path class="cls-2" d="M60.79,184.85V152.9h3.87v28.52H79.52v3.43Z"/><path class="cls-2" d="M88.82,184.85H84.76L96.5,152.9h4l11.73,31.95h-4L98.62,158h-.25Zm1.5-12.48h16.35v3.43H90.32Z"/><path class="cls-2" d="M117.22,184.85V152.9h11.17A11.79,11.79,0,0,1,133.9,154a7.7,7.7,0,0,1,3.23,3.08,8.64,8.64,0,0,1,1.06,4.27,7,7,0,0,1-.73,3.4,5.74,5.74,0,0,1-1.9,2.12,8.76,8.76,0,0,1-2.55,1.15v.32a6.17,6.17,0,0,1,3,1,7.41,7.41,0,0,1,2.48,2.68,8.43,8.43,0,0,1,1,4.27,8.67,8.67,0,0,1-1.09,4.33,7.56,7.56,0,0,1-3.45,3,14.34,14.34,0,0,1-6.14,1.12Zm3.87-17.91h7.18a7.14,7.14,0,0,0,3.16-.69,5.47,5.47,0,0,0,2.24-1.93,5.12,5.12,0,0,0,.84-2.93A4.91,4.91,0,0,0,133,157.8a6.36,6.36,0,0,0-4.65-1.47h-7.3Zm0,14.48h7.67q3.8,0,5.4-1.47a4.73,4.73,0,0,0,1.6-3.59,5.75,5.75,0,0,0-.83-3,6,6,0,0,0-2.36-2.21,7.39,7.39,0,0,0-3.62-.84h-7.86Z"/><path class="cls-2" d="M163.28,160.89A4.92,4.92,0,0,0,161,157.2a8.76,8.76,0,0,0-4.9-1.31,9.18,9.18,0,0,0-3.7.69,5.9,5.9,0,0,0-2.47,1.89,4.48,4.48,0,0,0-.88,2.73,3.84,3.84,0,0,0,.62,2.19,5.18,5.18,0,0,0,1.58,1.51,11.21,11.21,0,0,0,2,1c.71.25,1.36.46,1.95.61l3.25.88c.83.22,1.76.52,2.78.9a13.32,13.32,0,0,1,3,1.57,8.12,8.12,0,0,1,2.33,2.54,7.22,7.22,0,0,1,.92,3.79,8.45,8.45,0,0,1-1.35,4.68,9.31,9.31,0,0,1-3.93,3.32,16.43,16.43,0,0,1-12.2.13,9.41,9.41,0,0,1-3.93-3.09,8.77,8.77,0,0,1-1.62-4.61h4a4.91,4.91,0,0,0,1.22,3,6.37,6.37,0,0,0,2.72,1.75,10.74,10.74,0,0,0,3.55.57,10.3,10.3,0,0,0,4-.73,6.81,6.81,0,0,0,2.79-2,4.82,4.82,0,0,0,1-3,3.78,3.78,0,0,0-.89-2.6,6.59,6.59,0,0,0-2.34-1.62,25.07,25.07,0,0,0-3.14-1.09l-3.93-1.12a14.7,14.7,0,0,1-5.93-3.08,6.73,6.73,0,0,1-2.19-5.22,7.76,7.76,0,0,1,1.46-4.69,9.76,9.76,0,0,1,3.94-3.13,13.32,13.32,0,0,1,5.53-1.11,13.09,13.09,0,0,1,5.49,1.1,9.67,9.67,0,0,1,3.82,3,7.57,7.57,0,0,1,1.49,4.33Z"/><polygon class="cls-2" points="169.71 80.86 169.71 80.86 138.32 80.86 138.32 80.86 138.32 101.04 169.71 101.04 169.72 101.04 169.72 80.86 169.71 80.86"/><polygon class="cls-2" points="98.32 129.83 98.32 129.83 129.71 129.83 129.71 129.83 129.71 109.65 98.32 109.65 98.32 129.83"/><path class="cls-2" d="M169.71,69A16.92,16.92,0,0,0,152.8,52.06H138.32V72.25h31.39Z"/><polygon class="cls-2" points="98.32 52.07 98.32 72.25 98.32 72.25 129.71 72.25 129.71 72.25 129.71 52.07 129.71 52.06 98.32 52.06 98.32 52.07"/><polygon class="cls-2" points="58.31 80.86 58.31 80.86 58.31 101.04 58.31 101.04 89.7 101.04 89.7 80.86 89.7 80.86 58.31 80.86 58.31 80.86"/><path class="cls-2" d="M138.32,129.83H152.8a16.91,16.91,0,0,0,16.91-16.91v-3.27H138.32Z"/><path class="cls-2" d="M58.31,112.92a16.91,16.91,0,0,0,16.91,16.91H89.7V109.65H58.31Z"/><path class="cls-2" d="M58.31,69v3.27H89.7V52.07H75.22A16.91,16.91,0,0,0,58.31,69Z"/></g></svg>