<svg width="150" height="150" xmlns="http://www.w3.org/2000/svg" xmlns:xlink="http://www.w3.org/1999/xlink" xml:space="preserve" overflow="hidden"><defs><clipPath id="clip0"><rect x="963" y="404" width="150" height="150"/></clipPath></defs><g clip-path="url(#clip0)" transform="translate(-963 -404)"><path d="M1088.13 547.75 988.133 547.75C977.797 547.75 969.383 539.336 969.383 529L969.383 429C969.383 418.664 977.797 410.25 988.133 410.25L1088.13 410.25C1098.47 410.25 1106.88 418.664 1106.88 429L1106.88 529C1106.88 539.336 1098.47 547.75 1088.13 547.75ZM988.133 416.5C981.242 416.5 975.633 422.109 975.633 429L975.633 529C975.633 535.891 981.242 541.5 988.133 541.5L1088.13 541.5C1095.02 541.5 1100.63 535.891 1100.63 529L1100.63 429C1100.63 422.109 1095.02 416.5 1088.13 416.5L988.133 416.5Z"/><path d="M1002.95 449.195 1022.88 449.195 1022.88 462.297 1002.95 462.297Z" fill="#DA291C"/><path d="M1028.33 430.641 1047.89 430.641 1047.89 443.742 1028.33 443.742Z" fill="#DA291C"/><path d="M1028.33 467.758 1047.89 467.758 1047.89 480.852 1028.33 480.852Z" fill="#DA291C"/><path d="M1053.33 449.195 1073.32 449.195 1073.32 462.297 1053.33 462.297Z" fill="#DA291C"/><path d="M1011.12 430.641C1006.97 431.734 1003.7 436.375 1002.95 442.273L1002.95 443.734 1022.88 443.734 1022.88 430.633 1011.13 430.633Z" fill="#DA291C"/><path d="M1002.95 467.758 1002.95 469.375C1003.67 475.023 1006.7 479.531 1010.62 480.852L1022.88 480.852 1022.88 467.758 1002.95 467.758Z" fill="#DA291C"/><path d="M1073.33 443.742 1073.33 442.266C1072.56 436.367 1069.3 431.734 1065.14 430.641L1053.33 430.641 1053.33 443.742 1073.32 443.742Z" fill="#DA291C"/><path d="M1065.66 480.852C1069.55 479.531 1072.59 475.039 1073.32 469.391L1073.32 467.758 1053.33 467.758 1053.33 480.852 1065.66 480.852Z" fill="#DA291C"/><path d="M1012.81 503.961 1005.21 525.094 1008.59 525.094 1010.53 519.5 1018.79 519.5 1020.72 525.094 1024.1 525.094 1016.5 503.961 1012.82 503.961ZM1011.45 516.82 1014.57 507.805 1014.73 507.805 1017.85 516.82 1011.45 516.82Z"/><path d="M1039.84 515.094C1039.23 514.633 1038.57 514.266 1037.87 513.977 1037.16 513.695 1036.47 513.469 1035.79 513.305L1033.73 512.766C1033.31 512.664 1032.88 512.531 1032.44 512.367 1031.99 512.203 1031.57 512 1031.18 511.758 1030.79 511.516 1030.48 511.211 1030.24 510.844 1030.01 510.477 1029.88 510.047 1029.88 509.547 1029.88 508.945 1030.05 508.414 1030.41 507.945 1030.75 507.477 1031.24 507.102 1031.88 506.828 1032.51 506.555 1033.26 506.422 1034.12 506.422 1035.34 506.422 1036.34 506.695 1037.14 507.234 1037.94 507.773 1038.39 508.531 1038.5 509.508L1041.58 509.508C1041.55 508.375 1041.22 507.367 1040.59 506.492 1039.95 505.617 1039.09 504.93 1037.99 504.422 1036.9 503.914 1035.63 503.672 1034.2 503.672 1032.77 503.672 1031.52 503.922 1030.38 504.43 1029.26 504.938 1028.36 505.641 1027.7 506.547 1027.04 507.453 1026.71 508.516 1026.71 509.734 1026.71 511.203 1027.2 512.391 1028.2 513.281 1029.19 514.172 1030.52 514.852 1032.21 515.312L1034.71 515.992C1035.47 516.188 1036.15 516.422 1036.75 516.68 1037.35 516.938 1037.83 517.273 1038.19 517.672 1038.54 518.07 1038.72 518.586 1038.72 519.211 1038.72 519.898 1038.52 520.5 1038.11 521.008 1037.7 521.523 1037.15 521.922 1036.45 522.203 1035.74 522.492 1034.94 522.633 1034.04 522.633 1033.22 522.633 1032.47 522.508 1031.78 522.266 1031.09 522.023 1030.54 521.648 1030.1 521.141 1029.66 520.633 1029.41 520 1029.35 519.234L1026.16 519.234C1026.23 520.508 1026.59 521.609 1027.24 522.531 1027.9 523.453 1028.8 524.172 1029.95 524.672 1031.11 525.172 1032.48 525.422 1034.06 525.422 1035.65 525.422 1037.12 525.156 1038.29 524.617 1039.45 524.078 1040.34 523.352 1040.96 522.422 1041.58 521.492 1041.88 520.43 1041.88 519.234 1041.88 518.289 1041.7 517.469 1041.32 516.789 1040.95 516.109 1040.45 515.539 1039.85 515.078Z"/><path d="M1045.68 503.961 1048.87 503.961 1048.87 525.094 1045.68 525.094Z"/><path d="M1067.13 520.078C1066.79 520.602 1066.38 521.039 1065.89 521.391 1065.41 521.742 1064.86 522.016 1064.26 522.203 1063.66 522.391 1063.02 522.477 1062.35 522.477 1061.15 522.477 1060.06 522.172 1059.1 521.57 1058.14 520.961 1057.38 520.07 1056.83 518.891 1056.27 517.711 1056 516.258 1056 514.539 1056 512.82 1056.27 511.391 1056.83 510.203 1057.38 509.016 1058.14 508.125 1059.1 507.508 1060.06 506.898 1061.15 506.586 1062.37 506.586 1063.04 506.586 1063.68 506.68 1064.28 506.867 1064.88 507.055 1065.43 507.328 1065.91 507.695 1066.4 508.062 1066.81 508.5 1067.15 509.023 1067.48 509.547 1067.72 510.148 1067.84 510.844L1071.05 510.844C1070.88 509.711 1070.53 508.695 1070.02 507.812 1069.52 506.93 1068.88 506.18 1068.09 505.562 1067.31 504.945 1066.44 504.477 1065.47 504.156 1064.49 503.836 1063.45 503.68 1062.33 503.68 1060.51 503.68 1058.88 504.117 1057.45 504.984 1056.02 505.852 1054.88 507.102 1054.06 508.719 1053.23 510.336 1052.83 512.273 1052.83 514.531 1052.83 516.789 1053.24 518.719 1054.06 520.344 1054.88 521.969 1056.01 523.211 1057.45 524.086 1058.88 524.961 1060.51 525.391 1062.34 525.391 1063.5 525.391 1064.57 525.219 1065.55 524.875 1066.54 524.531 1067.41 524.047 1068.18 523.414 1068.95 522.781 1069.58 522.031 1070.07 521.164 1070.56 520.297 1070.89 519.344 1071.06 518.297L1067.84 518.297C1067.71 518.961 1067.48 519.555 1067.14 520.078Z"/></g></svg>