<?xml version="1.0" encoding="UTF-8"?><svg id="a" xmlns="http://www.w3.org/2000/svg" viewBox="0 0 192 192"><defs><style>.c{fill:#da291c;}</style></defs><g id="b"><rect class="c" x="60.07" y="62.87" width="20.39" height="13.4"/><rect class="c" x="86.02" y="43.89" width="20" height="13.4"/><rect class="c" x="86.02" y="81.85" width="20" height="13.39"/><rect class="c" x="111.59" y="62.87" width="20.45" height="13.4"/><path class="c" d="M68.43,43.89c-4.24,1.12-7.59,5.87-8.36,11.9v1.5h20.38v-13.4h-12.02Z"/><path class="c" d="M60.07,81.85v1.65c.74,5.78,3.84,10.39,7.84,11.74h12.54v-13.39h-20.38Z"/><path class="c" d="M132,57.29v-1.51c-.78-6-4.12-10.77-8.37-11.89h-12.04v13.4h20.41Z"/><path class="c" d="M124.2,95.24c4-1.35,7.09-5.95,7.84-11.72v-1.67h-20.45v13.39h12.61Z"/></g><path d="M96.05,184c-48.6,0-88-39.4-88-88S47.45,8,96.05,8s88,39.4,88,88c-.06,48.58-39.42,87.94-88,88Zm0-168c-44.18,0-80,35.82-80,80s35.82,80,80,80,80-35.82,80-80c-.05-44.16-35.84-79.95-80-80Z"/><path d="M96.66,132.28c0,8-5,14.56-13.31,14.56s-13.35-6.58-13.35-14.56,5-14.56,13.31-14.56,13.35,6.66,13.35,14.56Zm-21.76,0c0,5.33,2.49,10.59,8.45,10.59s8.44-5.26,8.44-10.59-2.49-10.59-8.44-10.59-8.45,5.31-8.45,10.59Z"/><path d="M104.28,136.91c0,4.24,3.16,6,7,6,4.28,0,5.88-2.14,5.88-4.21,.13-1.54-.83-2.96-2.3-3.42-2-.74-4.44-1.25-8.29-2.3-4.79-1.24-6.15-4.16-6.15-7,0-5.61,5.14-8.18,10.16-8.18,5.76,0,10.67,3.08,10.67,8.88h-4.87c-.27-3.58-2.61-4.91-6-4.91-2.25,0-5.09,.82-5.09,3.62,0,2,1.32,3,3.3,3.58,.43,.12,6.58,1.72,8,2.15,3.19,.88,5.4,3.77,5.41,7.08,0,6.23-5.56,8.72-11,8.72-6.35,0-11.48-3-11.6-9.93l4.88-.08Z"/></svg>