<svg xmlns="http://www.w3.org/2000/svg" width="24" height="24" viewBox="0 0 28 28">
    <g fill="none" fill-rule="evenodd">
        <path fill="#495057" d="M9.875 11.522c.154 1.364.863 2.854 2.127 4.472 1.264 1.618 2.54 2.666 3.825 3.146l2.43-1.899a1.933 1.933 0 0 1 2.588.188l3.433 3.452a1.933 1.933 0 0 1-.207 2.86l-2.126 1.66c-2.524 1.972-9.457-1.113-13.665-6.499-4.208-5.386-5.524-12.86-3-14.831L7.406 2.41a1.933 1.933 0 0 1 2.825.49l2.518 4.167c.531.84.34 1.945-.444 2.556l-2.43 1.899z"/>
    </g>
</svg>
