<svg width="250" height="70" viewBox="0 0 250 70" fill="none" xmlns="http://www.w3.org/2000/svg">
<path d="M0 0H250V70H0V0Z" fill="white"/>
<g clip-path="url(#clip0_9_120)">
<path d="M174.699 22.1983C173.249 22.1983 171.909 22.62 170.79 23.3533V22.2717C170.661 19.375 168.294 18.44 167.67 18.1467H167.596V36.1683C167.596 36.1683 169.725 35.9483 170.515 34.775C171.689 35.6183 173.121 36.1317 174.699 36.1317C178.627 36.1317 181.803 33.015 181.803 29.1833C181.803 25.3517 178.609 22.1983 174.699 22.1983ZM174.699 32.9967C172.515 32.9967 170.753 31.2733 170.753 29.1467C170.753 27.02 172.515 25.2967 174.699 25.2967C176.884 25.2967 178.627 27.02 178.627 29.1467C178.627 31.2733 176.847 32.9967 174.699 32.9967ZM189.695 22.1983C185.767 22.1983 182.592 25.315 182.592 29.1467C182.592 32.9783 185.767 36.095 189.695 36.095C191.31 36.095 192.815 35.5633 194.008 34.665C194.742 35.875 196.798 36.095 196.798 36.095V29.1467C196.816 25.315 193.604 22.1983 189.695 22.1983ZM189.695 32.9967C187.511 32.9967 185.749 31.2733 185.749 29.1467C185.749 27.02 187.511 25.2967 189.695 25.2967C191.879 25.2967 193.623 27.02 193.623 29.1467C193.623 31.2733 191.861 32.9967 189.695 32.9967ZM133.09 22.1983C129.18 22.1983 125.987 25.315 125.987 29.1467C125.987 32.9783 129.162 36.095 133.09 36.095C134.723 36.095 136.21 35.5633 137.403 34.665C138.137 35.875 140.193 36.095 140.193 36.095V29.1467C140.175 25.315 136.999 22.1983 133.09 22.1983ZM133.09 32.9967C130.924 32.9967 129.162 31.2733 129.162 29.1467C129.162 27.02 130.924 25.2967 133.09 25.2967C135.256 25.2967 137.036 27.02 137.036 29.1467C137.036 31.2733 135.237 32.9967 133.09 32.9967ZM148.654 22.1983C149.554 22.1983 150.416 22.3633 151.206 22.6567V26.3233C150.527 25.7367 149.627 25.3883 148.654 25.3883C146.507 25.3883 144.782 27.0933 144.782 29.1833V36.095H141.515V23.4817C141.515 23.4817 142.854 23.5367 143.717 24.1417C145.02 22.95 146.746 22.18 148.654 22.1983ZM166.165 29.1283C166.146 32.9783 163.099 36.095 159.373 36.095C155.647 36.095 152.582 32.9783 152.564 29.1283V23.1883C152.564 23.1883 155.794 23.995 155.831 27.4783V29.0917C155.831 31.2 157.409 32.905 159.355 32.905C161.301 32.905 162.879 31.2 162.879 29.0917V25.7183C163.008 22.8217 165.449 21.8867 166.073 21.5933H166.146L166.165 29.1283Z" fill="#FF8300"/>
<path d="M76.0443 21.795V47.975H69.1614V37.6167H59.0664V47.975H52.1835V21.795H59.0481V31.7317H69.1614V21.795H76.0443ZM93.4259 30.9983C93.4259 32.96 92.3247 34.28 89.8468 34.28H85.8823V27.7167H89.8468C92.3247 27.7167 93.4259 29.0367 93.4259 30.9983ZM90.5626 40C96.2525 40 100.089 36.8467 100.089 30.9983C100.089 25.15 96.2342 21.96 90.5626 21.96H79.0911V48.14H85.8823V40H90.5626ZM102.034 21.96V48.14H120.774V42.2183H108.789V37.69H119.765V31.9333H108.789V27.845H120.774V21.96H102.034Z" fill="black"/>
<path d="M127.914 41.155V41.7967C128.281 41.3567 128.978 41.0083 129.786 41.0083C131.365 41.0083 132.264 42.035 132.264 43.5933V48.1583H130.318V44.015C130.318 43.2817 129.951 42.7867 129.18 42.7867C128.593 42.7867 128.079 43.1533 127.914 43.7583V48.1767H125.968V41.1917L127.914 41.155ZM135.439 45.0967C135.586 46.2333 136.43 46.71 137.458 46.71C138.229 46.71 138.78 46.545 139.459 46.105V47.7C138.872 48.1217 138.101 48.305 137.165 48.305C135.035 48.305 133.585 46.93 133.585 44.7117C133.585 42.53 134.962 41.0083 136.871 41.0083C138.908 41.0083 139.954 42.42 139.954 44.4733V45.0967H135.439ZM135.494 43.8317H138.137C138.101 43.08 137.678 42.5483 136.908 42.5483C136.265 42.5483 135.715 42.9517 135.494 43.8317ZM142.102 48.14V42.7133H140.78V41.155H142.102V39.2667H144.047V41.155H145.534V42.7133H144.047V48.14H142.102ZM154.436 41.155H156.308L154.179 48.14H152.399L151.261 43.8683L150.123 48.14H148.342L146.213 41.155H148.159L149.407 45.61L150.545 41.155H152.032L153.188 45.61L154.436 41.155ZM160.438 48.2867C158.401 48.2867 157.006 46.7833 157.006 44.6567C157.006 42.4933 158.401 41.0083 160.438 41.0083C162.475 41.0083 163.87 42.5117 163.87 44.6567C163.87 46.8017 162.457 48.2867 160.438 48.2867ZM160.438 42.64C159.465 42.64 158.933 43.4833 158.933 44.6567C158.933 45.8117 159.465 46.655 160.438 46.655C161.411 46.655 161.943 45.8117 161.943 44.6567C161.943 43.4833 161.392 42.64 160.438 42.64ZM169.487 43.0617C169.211 42.8967 168.881 42.8233 168.514 42.8233C167.853 42.8233 167.321 43.1717 167.192 43.8133V48.14H165.247V41.155H167.192V41.8517C167.486 41.3567 168.073 41.0083 168.753 41.0083C169.083 41.0083 169.377 41.0633 169.487 41.1367V43.0617ZM175.342 48.14L172.827 44.9317V48.14H170.882V37.9833H172.827V43.9233L175.213 41.155H177.544L174.644 44.3633L177.618 48.14H175.342ZM179.582 40.2567C178.958 40.2567 178.425 39.7983 178.425 39.1383C178.425 38.4967 178.958 38.02 179.582 38.02C180.187 38.02 180.72 38.4967 180.72 39.1383C180.72 39.7983 180.206 40.2567 179.582 40.2567ZM178.609 48.14V41.155H180.554V48.14H178.609ZM184.335 41.155V41.7967C184.703 41.3567 185.4 41.0083 186.208 41.0083C187.786 41.0083 188.685 42.035 188.685 43.5933V48.1583H186.74V44.015C186.74 43.2817 186.373 42.7867 185.602 42.7867C185.015 42.7867 184.501 43.1533 184.335 43.7583V48.1767H182.39V41.1917L184.335 41.155ZM194.853 47.3333C194.54 47.7 193.935 48.03 193.146 48.03C191.127 48.03 189.989 46.3983 189.989 44.51C189.989 42.6033 191.127 40.99 193.146 40.99C193.935 40.99 194.54 41.3383 194.853 41.6867V41.1367H196.798V47.3517C196.798 49.9183 194.908 50.8533 192.999 50.8533C192.044 50.8533 191.163 50.615 190.594 50.2667V48.36C191.31 48.9833 192.063 49.2217 192.962 49.2217C194.008 49.2217 194.853 48.69 194.853 47.5533V47.3333ZM194.853 43.3367C194.632 42.9517 194.137 42.6217 193.549 42.6217C192.522 42.6217 191.916 43.41 191.916 44.5283C191.916 45.6283 192.503 46.4167 193.549 46.4167C194.137 46.4167 194.632 46.105 194.853 45.7017V43.3367Z" fill="black"/>
</g>
<defs>
<clipPath id="clip0_9_120">
<rect width="145" height="33" fill="white" transform="translate(52 18)"/>
</clipPath>
</defs>
</svg>
