<svg width="250" height="70" viewBox="0 0 250 70" fill="none" xmlns="http://www.w3.org/2000/svg">
<path d="M0 0H250V70H0V0Z" fill="white"/>
<path d="M95.3741 25.3325H109.11V27.2881H97.5159V33.7603H107.899V35.7159H97.5159V42.3744H109.25V44.33H95.3741V25.3325Z" fill="#440198"/>
<path d="M116.7 37.2059L111.392 30.3147H113.766L117.91 35.7625L122.054 30.3147H124.383L119.121 37.1594L124.662 44.3766H122.241L117.91 38.6494L113.533 44.3766H111.205L116.7 37.2059Z" fill="#440198"/>
<path d="M128.201 40.605V32.1306H126.245V30.2681H128.201V26.0309H130.296V30.2681H134.766V32.1306H130.296V40.3256C130.296 42.0484 131.227 42.6538 132.671 42.6538C133.369 42.6538 133.974 42.5141 134.719 42.1416V43.9575C133.974 44.33 133.183 44.5628 132.205 44.5628C129.923 44.5628 128.201 43.4919 128.201 40.605Z" fill="#440198"/>
<path d="M137.653 30.3147H139.748V33.9931C140.773 31.665 142.821 29.9888 145.475 30.0819V32.3169H145.336C142.263 32.3169 139.748 34.5053 139.748 38.7425V44.33H137.653V30.3147Z" fill="#440198"/>
<path d="M153.717 42.84C155.626 42.84 157.023 42.0484 158.14 40.8378L159.444 42.0019C158.047 43.585 156.324 44.6559 153.67 44.6559C149.806 44.6559 146.639 41.6759 146.639 37.2991C146.639 33.2016 149.48 29.9422 153.391 29.9422C157.535 29.9422 159.956 33.2481 159.956 37.3922C159.956 37.5784 159.956 37.8112 159.91 38.1372H148.781C149.061 41.1172 151.203 42.84 153.717 42.84ZM157.814 36.5075C157.582 33.9466 156.092 31.7581 153.344 31.7581C150.923 31.7581 149.061 33.7603 148.781 36.5075H157.814Z" fill="#440198"/>
<path d="M162.797 30.3147H164.892V32.6894C165.823 31.2925 167.08 30.0353 169.408 30.0353C171.69 30.0353 173.18 31.2459 173.925 32.8291C174.949 31.2925 176.439 30.0353 178.861 30.0353C182.073 30.0353 184.076 32.2237 184.076 35.6694V44.3766H181.98V36.1816C181.98 33.4809 180.63 31.9444 178.348 31.9444C176.207 31.9444 174.484 33.5275 174.484 36.2747V44.3766H172.435V36.135C172.435 33.4809 171.038 31.9444 168.803 31.9444C166.568 31.9444 164.892 33.8069 164.892 36.3678V44.3766H162.797V30.3147Z" fill="#440198"/>
<path d="M193.761 42.84C195.67 42.84 197.067 42.0484 198.184 40.8378L199.488 42.0019C198.091 43.585 196.368 44.6559 193.714 44.6559C189.849 44.6559 186.683 41.6759 186.683 37.2991C186.683 33.2016 189.523 29.9422 193.435 29.9422C197.579 29.9422 200 33.2481 200 37.3922C200 37.5784 200 37.8112 199.953 38.1372H188.825C189.151 41.1172 191.293 42.84 193.761 42.84ZM197.858 36.5075C197.625 33.9466 196.135 31.7581 193.388 31.7581C190.967 31.7581 189.104 33.7603 188.825 36.5075H197.858Z" fill="#440198"/>
<path d="M80.5672 19.5122V24.7737C80.5672 25.0531 80.3344 25.2859 80.055 25.2859H57.8913C57.6119 25.2859 57.3791 25.5188 57.3791 25.7981V36.6938C57.3791 37.5319 57.0531 38.3234 56.4478 38.9288L51 44.33V19.5122C51 19.2328 51.2328 19 51.5122 19H80.055C80.3344 19 80.5672 19.2328 80.5672 19.5122Z" fill="#440198"/>
<path d="M64.1772 37.9975H75.9109C76.1903 37.9975 76.4231 37.7647 76.4231 37.4853V32.2237C76.4231 31.9444 76.1903 31.7116 75.9109 31.7116H64.1772C63.8978 31.7116 63.665 31.9444 63.665 32.2237V37.4853C63.665 37.7647 63.8978 37.9975 64.1772 37.9975Z" fill="#440198"/>
<path d="M51 44.33L56.4013 49.7313C57.0066 50.3366 57.7981 50.6625 58.6363 50.6625H80.055C80.3344 50.6625 80.5672 50.4297 80.5672 50.1503V44.8888C80.5672 44.6094 80.3344 44.3766 80.055 44.3766H51V44.33Z" fill="#440198"/>
</svg>
